<?xml version="1.0" encoding="UTF-8" standalone="no"?><!DOCTYPE svg PUBLIC "-//W3C//DTD SVG 1.1//EN" "http://www.w3.org/Graphics/SVG/1.1/DTD/svg11.dtd"><svg width="100%" height="100%" viewBox="0 0 450 450" version="1.1" xmlns="http://www.w3.org/2000/svg" xmlns:xlink="http://www.w3.org/1999/xlink" xml:space="preserve" xmlns:serif="http://www.serif.com/" style="fill-rule:evenodd;clip-rule:evenodd;stroke-linejoin:round;stroke-miterlimit:1.41421;"><rect id="Artboard1" x="0" y="0" width="450" height="450" style="fill:none;"/><path d="M364.342,209.404c4.59,14.381 7.068,29.701 7.068,45.596c0,82.787 -67.213,150 -150,150c-82.787,0 -150,-67.213 -150,-150c0,-82.787 67.213,-150 150,-150c36.475,0 69.927,13.047 95.939,34.725l-26.659,26.659c-19.103,-14.962 -43.158,-23.884 -69.28,-23.884c-62.091,0 -112.5,50.41 -112.5,112.5c0,62.09 50.409,112.5 112.5,112.5c62.09,0 112.5,-50.41 112.5,-112.5c0,-4.832 -0.305,-9.594 -0.898,-14.266l31.33,-31.33Z" style="fill:#3c3744;"/><path d="M352.074,136.82l-148.493,148.492l26.517,26.517l148.492,-148.493l-26.516,-26.516Z" style="fill:#3c3744;"/><path d="M256.279,285.312l-84.853,-84.853l-26.516,26.517l84.853,84.853l26.516,-26.517Z" style="fill:#3c3744;"/><rect x="176.41" y="45" width="90" height="37.5" style="fill:#3c3744;"/></svg>