<?xml version="1.0" encoding="UTF-8" standalone="no"?><!DOCTYPE svg PUBLIC "-//W3C//DTD SVG 1.1//EN" "http://www.w3.org/Graphics/SVG/1.1/DTD/svg11.dtd"><svg width="100%" height="100%" viewBox="0 0 2923 480" version="1.1" xmlns="http://www.w3.org/2000/svg" xmlns:xlink="http://www.w3.org/1999/xlink" xml:space="preserve" xmlns:serif="http://www.serif.com/" style="fill-rule:evenodd;clip-rule:evenodd;stroke-linejoin:round;stroke-miterlimit:1.41421;"><path d="M390.577,219.205c6.12,19.175 9.423,39.602 9.423,60.795c0,110.383 -89.617,200 -200,200c-110.383,0 -200,-89.617 -200,-200c0,-110.383 89.617,-200 200,-200c48.633,0 93.236,17.396 127.918,46.3l-35.545,35.545c-25.471,-19.948 -57.543,-31.845 -92.373,-31.845c-82.787,0 -150,67.213 -150,150c0,82.787 67.213,150 150,150c82.787,0 150,-67.213 150,-150c0,-6.443 -0.407,-12.791 -1.197,-19.021l41.774,-41.774Z" style="fill:#3c3744;"/><path d="M374.218,122.426l-197.99,197.99l35.356,35.356l197.99,-197.99l-35.356,-35.356Z" style="fill:#3c3744;"/><path d="M246.492,320.416l-113.137,-113.137l-35.355,35.356l113.137,113.137l35.355,-35.356Z" style="fill:#3c3744;"/><rect x="140" y="0" width="120" height="50" style="fill:#3c3744;"/><path d="M692.8,196.4l-92.8,0l0,-44l237.6,0l0,44l-92.8,0l0,236l-52,0l0,-236Z" style="fill:#3c3744;fill-rule:nonzero;"/><path d="M866.8,218.8l50,0l0,213.6l-50,0l0,-213.6Zm25.2,-35.2c-9.067,0 -16.667,-2.867 -22.8,-8.6c-6.133,-5.733 -9.2,-12.867 -9.2,-21.4c0,-8.533 3.067,-15.667 9.2,-21.4c6.133,-5.733 13.733,-8.6 22.8,-8.6c9.067,0 16.667,2.733 22.8,8.2c6.133,5.467 9.2,12.333 9.2,20.6c0,8.8 -3,16.2 -9,22.2c-6,6 -13.667,9 -23,9Z" style="fill:#3c3744;fill-rule:nonzero;"/><path d="M1252,216.4c26.933,0 48.267,7.8 64,23.4c15.733,15.6 23.6,39 23.6,70.2l0,122.4l-50,0l0,-116c0,-18.667 -4.133,-32.733 -12.4,-42.2c-8.267,-9.467 -20.133,-14.2 -35.6,-14.2c-16.8,0 -30.267,5.533 -40.4,16.6c-10.133,11.067 -15.2,26.867 -15.2,47.4l0,108.4l-50,0l0,-116c0,-18.667 -4.133,-32.733 -12.4,-42.2c-8.267,-9.467 -20.133,-14.2 -35.6,-14.2c-17.067,0 -30.6,5.467 -40.6,16.4c-10,10.933 -15,26.8 -15,47.6l0,108.4l-50,0l0,-213.6l47.6,0l0,27.2c8,-9.6 18,-16.933 30,-22c12,-5.067 25.333,-7.6 40,-7.6c16,0 30.2,3 42.6,9c12.4,6 22.2,14.867 29.4,26.6c8.8,-11.2 20.133,-19.933 34,-26.2c13.867,-6.267 29.2,-9.4 46,-9.4Z" style="fill:#3c3744;fill-rule:nonzero;"/><path d="M1606.4,326.8c0,3.467 -0.267,8.4 -0.8,14.8l-167.6,0c2.933,15.733 10.6,28.2 23,37.4c12.4,9.2 27.8,13.8 46.2,13.8c23.467,0 42.8,-7.733 58,-23.2l26.8,30.8c-9.6,11.467 -21.733,20.133 -36.4,26c-14.667,5.867 -31.2,8.8 -49.6,8.8c-23.467,0 -44.133,-4.667 -62,-14c-17.867,-9.333 -31.667,-22.333 -41.4,-39c-9.733,-16.667 -14.6,-35.533 -14.6,-56.6c0,-20.8 4.733,-39.533 14.2,-56.2c9.467,-16.667 22.6,-29.667 39.4,-39c16.8,-9.333 35.733,-14 56.8,-14c20.8,0 39.4,4.6 55.8,13.8c16.4,9.2 29.2,22.133 38.4,38.8c9.2,16.667 13.8,35.933 13.8,57.8Zm-108,-70.4c-16,0 -29.533,4.733 -40.6,14.2c-11.067,9.467 -17.8,22.067 -20.2,37.8l121.2,0c-2.133,-15.467 -8.667,-28 -19.6,-37.6c-10.933,-9.6 -24.533,-14.4 -40.8,-14.4Z" style="fill:#3c3744;fill-rule:nonzero;"/><path d="M1788.8,436.4c-28.267,0 -53.8,-6.2 -76.6,-18.6c-22.8,-12.4 -40.667,-29.533 -53.6,-51.4c-12.933,-21.867 -19.4,-46.533 -19.4,-74c0,-27.467 6.533,-52.133 19.6,-74c13.067,-21.867 31,-39 53.8,-51.4c22.8,-12.4 48.333,-18.6 76.6,-18.6c22.933,0 43.867,4 62.8,12c18.933,8 34.933,19.6 48,34.8l-33.6,31.6c-20.267,-21.867 -45.2,-32.8 -74.8,-32.8c-19.2,0 -36.4,4.2 -51.6,12.6c-15.2,8.4 -27.067,20.067 -35.6,35c-8.533,14.933 -12.8,31.867 -12.8,50.8c0,18.933 4.267,35.867 12.8,50.8c8.533,14.933 20.4,26.6 35.6,35c15.2,8.4 32.4,12.6 51.6,12.6c29.6,0 54.533,-11.067 74.8,-33.2l33.6,32c-13.067,15.2 -29.133,26.8 -48.2,34.8c-19.067,8 -40.067,12 -63,12Z" style="fill:#3c3744;fill-rule:nonzero;"/><path d="M2066.4,216.4c26.933,0 48.533,7.867 64.8,23.6c16.267,15.733 24.4,39.067 24.4,70l0,122.4l-50,0l0,-116c0,-18.667 -4.4,-32.733 -13.2,-42.2c-8.8,-9.467 -21.333,-14.2 -37.6,-14.2c-18.4,0 -32.933,5.533 -43.6,16.6c-10.667,11.067 -16,27 -16,47.8l0,108l-50,0l0,-296.8l50,0l0,108c8.267,-8.8 18.467,-15.533 30.6,-20.2c12.133,-4.667 25.667,-7 40.6,-7Z" style="fill:#3c3744;fill-rule:nonzero;"/><path d="M2422,326.8c0,3.467 -0.267,8.4 -0.8,14.8l-167.6,0c2.933,15.733 10.6,28.2 23,37.4c12.4,9.2 27.8,13.8 46.2,13.8c23.467,0 42.8,-7.733 58,-23.2l26.8,30.8c-9.6,11.467 -21.733,20.133 -36.4,26c-14.667,5.867 -31.2,8.8 -49.6,8.8c-23.467,0 -44.133,-4.667 -62,-14c-17.867,-9.333 -31.667,-22.333 -41.4,-39c-9.733,-16.667 -14.6,-35.533 -14.6,-56.6c0,-20.8 4.733,-39.533 14.2,-56.2c9.467,-16.667 22.6,-29.667 39.4,-39c16.8,-9.333 35.733,-14 56.8,-14c20.8,0 39.4,4.6 55.8,13.8c16.4,9.2 29.2,22.133 38.4,38.8c9.2,16.667 13.8,35.933 13.8,57.8Zm-108,-70.4c-16,0 -29.533,4.733 -40.6,14.2c-11.067,9.467 -17.8,22.067 -20.2,37.8l121.2,0c-2.133,-15.467 -8.667,-28 -19.6,-37.6c-10.933,-9.6 -24.533,-14.4 -40.8,-14.4Z" style="fill:#3c3744;fill-rule:nonzero;"/><path d="M2568,435.2c-22.133,0 -42,-4.667 -59.6,-14c-17.6,-9.333 -31.333,-22.333 -41.2,-39c-9.867,-16.667 -14.8,-35.533 -14.8,-56.6c0,-21.067 4.933,-39.867 14.8,-56.4c9.867,-16.533 23.533,-29.467 41,-38.8c17.467,-9.333 37.4,-14 59.8,-14c21.067,0 39.533,4.267 55.4,12.8c15.867,8.533 27.8,20.8 35.8,36.8l-38.4,22.4c-6.133,-9.867 -13.8,-17.267 -23,-22.2c-9.2,-4.933 -19.267,-7.4 -30.2,-7.4c-18.667,0 -34.133,6.067 -46.4,18.2c-12.267,12.133 -18.4,28.333 -18.4,48.6c0,20.267 6.067,36.467 18.2,48.6c12.133,12.133 27.667,18.2 46.6,18.2c10.933,0 21,-2.467 30.2,-7.4c9.2,-4.933 16.867,-12.333 23,-22.2l38.4,22.4c-8.267,16 -20.333,28.333 -36.2,37c-15.867,8.667 -34.2,13 -55,13Z" style="fill:#3c3744;fill-rule:nonzero;"/><path d="M2787.6,340.8l-37.2,35.2l0,56.4l-50,0l0,-296.8l50,0l0,179.2l103.6,-96l60,0l-89.2,89.6l97.6,124l-60.8,0l-74,-91.6Z" style="fill:#3c3744;fill-rule:nonzero;"/></svg>